<mxfile host="app.diagrams.net" modified="2023-06-22T23:32:55.837Z" agent="Mozilla/5.0 (X11; Linux x86_64) AppleWebKit/537.36 (KHTML, like Gecko) Chrome/110.0.0.0 Safari/537.36" etag="6EBWILjOltDLzrjMieYk" version="21.5.0" type="google">
  <diagram id="C5RBs43oDa-KdzZeNtuy" name="Page-1">
    <mxGraphModel grid="0" page="1" gridSize="10" guides="1" tooltips="1" connect="1" arrows="1" fold="1" pageScale="1" pageWidth="1169" pageHeight="1654" background="#ffffff" math="0" shadow="0">
      <root>
        <mxCell id="WIyWlLk6GJQsqaUBKTNV-0" />
        <mxCell id="WIyWlLk6GJQsqaUBKTNV-1" parent="WIyWlLk6GJQsqaUBKTNV-0" />
        <mxCell id="zkfFHV4jXpPFQw0GAbJ--0" value="Faculdade" style="swimlane;fontStyle=1;align=center;verticalAlign=top;childLayout=stackLayout;horizontal=1;startSize=26;horizontalStack=0;resizeParent=1;resizeLast=0;collapsible=1;marginBottom=0;rounded=0;shadow=0;strokeWidth=1;fillColor=#f8cecc;strokeColor=#000000;" vertex="1" parent="WIyWlLk6GJQsqaUBKTNV-1">
          <mxGeometry x="49" y="79" width="246" height="402" as="geometry">
            <mxRectangle x="220" y="120" width="160" height="26" as="alternateBounds" />
          </mxGeometry>
        </mxCell>
        <mxCell id="zkfFHV4jXpPFQw0GAbJ--1" value="-nome: String" style="text;align=left;verticalAlign=top;spacingLeft=4;spacingRight=4;overflow=hidden;rotatable=0;points=[[0,0.5],[1,0.5]];portConstraint=eastwest;" vertex="1" parent="zkfFHV4jXpPFQw0GAbJ--0">
          <mxGeometry y="26" width="246" height="26" as="geometry" />
        </mxCell>
        <mxCell id="zkfFHV4jXpPFQw0GAbJ--2" value="-cnpj(final): CNPJ" style="text;align=left;verticalAlign=top;spacingLeft=4;spacingRight=4;overflow=hidden;rotatable=0;points=[[0,0.5],[1,0.5]];portConstraint=eastwest;rounded=0;shadow=0;html=0;strokeColor=none;" vertex="1" parent="zkfFHV4jXpPFQw0GAbJ--0">
          <mxGeometry y="52" width="246" height="26" as="geometry" />
        </mxCell>
        <mxCell id="2K3gw-N-_aGc9L_W_P5B-11" value="-listaAlunos: List&amp;lt;Alunos&amp;gt;" style="text;strokeColor=none;fillColor=none;align=left;verticalAlign=top;spacingLeft=4;spacingRight=4;overflow=hidden;rotatable=0;points=[[0,0.5],[1,0.5]];portConstraint=eastwest;whiteSpace=wrap;html=1;" vertex="1" parent="zkfFHV4jXpPFQw0GAbJ--0">
          <mxGeometry y="78" width="246" height="26" as="geometry" />
        </mxCell>
        <mxCell id="2K3gw-N-_aGc9L_W_P5B-12" value="-listaProfessores: List&amp;lt;Professor&amp;gt;" style="text;strokeColor=none;fillColor=none;align=left;verticalAlign=top;spacingLeft=4;spacingRight=4;overflow=hidden;rotatable=0;points=[[0,0.5],[1,0.5]];portConstraint=eastwest;whiteSpace=wrap;html=1;" vertex="1" parent="zkfFHV4jXpPFQw0GAbJ--0">
          <mxGeometry y="104" width="246" height="26" as="geometry" />
        </mxCell>
        <mxCell id="2K3gw-N-_aGc9L_W_P5B-8" value="-materiasOferecidas: HashSet&amp;lt;Materia&amp;gt;" style="text;strokeColor=none;fillColor=none;align=left;verticalAlign=top;spacingLeft=4;spacingRight=4;overflow=hidden;rotatable=0;points=[[0,0.5],[1,0.5]];portConstraint=eastwest;whiteSpace=wrap;html=1;" vertex="1" parent="zkfFHV4jXpPFQw0GAbJ--0">
          <mxGeometry y="130" width="246" height="26" as="geometry" />
        </mxCell>
        <mxCell id="zkfFHV4jXpPFQw0GAbJ--4" value="" style="line;html=1;strokeWidth=1;align=left;verticalAlign=middle;spacingTop=-1;spacingLeft=3;spacingRight=3;rotatable=0;labelPosition=right;points=[];portConstraint=eastwest;" vertex="1" parent="zkfFHV4jXpPFQw0GAbJ--0">
          <mxGeometry y="156" width="246" height="8" as="geometry" />
        </mxCell>
        <mxCell id="2K3gw-N-_aGc9L_W_P5B-9" value="+gets/sets...()" style="text;strokeColor=none;fillColor=none;align=left;verticalAlign=top;spacingLeft=4;spacingRight=4;overflow=hidden;rotatable=0;points=[[0,0.5],[1,0.5]];portConstraint=eastwest;whiteSpace=wrap;html=1;" vertex="1" parent="zkfFHV4jXpPFQw0GAbJ--0">
          <mxGeometry y="164" width="246" height="26" as="geometry" />
        </mxCell>
        <mxCell id="2K3gw-N-_aGc9L_W_P5B-10" value="+addAluno(a: Aluno): boolean" style="text;strokeColor=none;fillColor=none;align=left;verticalAlign=top;spacingLeft=4;spacingRight=4;overflow=hidden;rotatable=0;points=[[0,0.5],[1,0.5]];portConstraint=eastwest;whiteSpace=wrap;html=1;" vertex="1" parent="zkfFHV4jXpPFQw0GAbJ--0">
          <mxGeometry y="190" width="246" height="26" as="geometry" />
        </mxCell>
        <mxCell id="2K3gw-N-_aGc9L_W_P5B-14" value="+remAluno(ra: String): boolean" style="text;strokeColor=none;fillColor=none;align=left;verticalAlign=top;spacingLeft=4;spacingRight=4;overflow=hidden;rotatable=0;points=[[0,0.5],[1,0.5]];portConstraint=eastwest;whiteSpace=wrap;html=1;" vertex="1" parent="zkfFHV4jXpPFQw0GAbJ--0">
          <mxGeometry y="216" width="246" height="26" as="geometry" />
        </mxCell>
        <mxCell id="2K3gw-N-_aGc9L_W_P5B-15" value="+addProfessor(p: Professor): boolean" style="text;strokeColor=none;fillColor=none;align=left;verticalAlign=top;spacingLeft=4;spacingRight=4;overflow=hidden;rotatable=0;points=[[0,0.5],[1,0.5]];portConstraint=eastwest;whiteSpace=wrap;html=1;" vertex="1" parent="zkfFHV4jXpPFQw0GAbJ--0">
          <mxGeometry y="242" width="246" height="26" as="geometry" />
        </mxCell>
        <mxCell id="2K3gw-N-_aGc9L_W_P5B-16" value="+remProfessor(cadastro: String): boolean" style="text;strokeColor=none;fillColor=none;align=left;verticalAlign=top;spacingLeft=4;spacingRight=4;overflow=hidden;rotatable=0;points=[[0,0.5],[1,0.5]];portConstraint=eastwest;whiteSpace=wrap;html=1;" vertex="1" parent="zkfFHV4jXpPFQw0GAbJ--0">
          <mxGeometry y="268" width="246" height="26" as="geometry" />
        </mxCell>
        <mxCell id="2K3gw-N-_aGc9L_W_P5B-17" value="+addMateria(m: Materia): boolean" style="text;strokeColor=none;fillColor=none;align=left;verticalAlign=top;spacingLeft=4;spacingRight=4;overflow=hidden;rotatable=0;points=[[0,0.5],[1,0.5]];portConstraint=eastwest;whiteSpace=wrap;html=1;" vertex="1" parent="zkfFHV4jXpPFQw0GAbJ--0">
          <mxGeometry y="294" width="246" height="26" as="geometry" />
        </mxCell>
        <mxCell id="2K3gw-N-_aGc9L_W_P5B-19" value="+hashCode(): int" style="text;strokeColor=none;fillColor=none;align=left;verticalAlign=top;spacingLeft=4;spacingRight=4;overflow=hidden;rotatable=0;points=[[0,0.5],[1,0.5]];portConstraint=eastwest;whiteSpace=wrap;html=1;" vertex="1" parent="zkfFHV4jXpPFQw0GAbJ--0">
          <mxGeometry y="320" width="246" height="26" as="geometry" />
        </mxCell>
        <mxCell id="2K3gw-N-_aGc9L_W_P5B-20" value="+equals(obj: Object): boolean" style="text;strokeColor=none;fillColor=none;align=left;verticalAlign=top;spacingLeft=4;spacingRight=4;overflow=hidden;rotatable=0;points=[[0,0.5],[1,0.5]];portConstraint=eastwest;whiteSpace=wrap;html=1;" vertex="1" parent="zkfFHV4jXpPFQw0GAbJ--0">
          <mxGeometry y="346" width="246" height="26" as="geometry" />
        </mxCell>
        <mxCell id="2K3gw-N-_aGc9L_W_P5B-18" value="+toString(): String" style="text;strokeColor=none;fillColor=none;align=left;verticalAlign=top;spacingLeft=4;spacingRight=4;overflow=hidden;rotatable=0;points=[[0,0.5],[1,0.5]];portConstraint=eastwest;whiteSpace=wrap;html=1;" vertex="1" parent="zkfFHV4jXpPFQw0GAbJ--0">
          <mxGeometry y="372" width="246" height="26" as="geometry" />
        </mxCell>
        <mxCell id="2K3gw-N-_aGc9L_W_P5B-2" value="Aluno" style="swimlane;fontStyle=1;align=center;verticalAlign=top;childLayout=stackLayout;horizontal=1;startSize=26;horizontalStack=0;resizeParent=1;resizeParentMax=0;resizeLast=0;collapsible=1;marginBottom=0;whiteSpace=wrap;html=1;fillColor=#f8cecc;strokeColor=#000000;" vertex="1" parent="WIyWlLk6GJQsqaUBKTNV-1">
          <mxGeometry x="321" y="79" width="218" height="268" as="geometry" />
        </mxCell>
        <mxCell id="2K3gw-N-_aGc9L_W_P5B-3" value="-curso: String" style="text;strokeColor=none;fillColor=none;align=left;verticalAlign=top;spacingLeft=4;spacingRight=4;overflow=hidden;rotatable=0;points=[[0,0.5],[1,0.5]];portConstraint=eastwest;whiteSpace=wrap;html=1;" vertex="1" parent="2K3gw-N-_aGc9L_W_P5B-2">
          <mxGeometry y="26" width="218" height="26" as="geometry" />
        </mxCell>
        <mxCell id="2K3gw-N-_aGc9L_W_P5B-27" value="-ra(final): String" style="text;strokeColor=none;fillColor=none;align=left;verticalAlign=top;spacingLeft=4;spacingRight=4;overflow=hidden;rotatable=0;points=[[0,0.5],[1,0.5]];portConstraint=eastwest;whiteSpace=wrap;html=1;" vertex="1" parent="2K3gw-N-_aGc9L_W_P5B-2">
          <mxGeometry y="52" width="218" height="26" as="geometry" />
        </mxCell>
        <mxCell id="2K3gw-N-_aGc9L_W_P5B-26" value="-grade: Set&amp;lt;Materia&amp;gt;" style="text;strokeColor=none;fillColor=none;align=left;verticalAlign=top;spacingLeft=4;spacingRight=4;overflow=hidden;rotatable=0;points=[[0,0.5],[1,0.5]];portConstraint=eastwest;whiteSpace=wrap;html=1;" vertex="1" parent="2K3gw-N-_aGc9L_W_P5B-2">
          <mxGeometry y="78" width="218" height="26" as="geometry" />
        </mxCell>
        <mxCell id="2K3gw-N-_aGc9L_W_P5B-25" value="-turmas: Set&amp;lt;Turma&amp;gt;" style="text;strokeColor=none;fillColor=none;align=left;verticalAlign=top;spacingLeft=4;spacingRight=4;overflow=hidden;rotatable=0;points=[[0,0.5],[1,0.5]];portConstraint=eastwest;whiteSpace=wrap;html=1;" vertex="1" parent="2K3gw-N-_aGc9L_W_P5B-2">
          <mxGeometry y="104" width="218" height="26" as="geometry" />
        </mxCell>
        <mxCell id="2K3gw-N-_aGc9L_W_P5B-4" value="" style="line;strokeWidth=1;fillColor=none;align=left;verticalAlign=middle;spacingTop=-1;spacingLeft=3;spacingRight=3;rotatable=0;labelPosition=right;points=[];portConstraint=eastwest;strokeColor=inherit;" vertex="1" parent="2K3gw-N-_aGc9L_W_P5B-2">
          <mxGeometry y="130" width="218" height="8" as="geometry" />
        </mxCell>
        <mxCell id="2K3gw-N-_aGc9L_W_P5B-28" value="+gets/sets...()" style="text;strokeColor=none;fillColor=none;align=left;verticalAlign=top;spacingLeft=4;spacingRight=4;overflow=hidden;rotatable=0;points=[[0,0.5],[1,0.5]];portConstraint=eastwest;whiteSpace=wrap;html=1;" vertex="1" parent="2K3gw-N-_aGc9L_W_P5B-2">
          <mxGeometry y="138" width="218" height="26" as="geometry" />
        </mxCell>
        <mxCell id="2K3gw-N-_aGc9L_W_P5B-30" value="+eliminarMateria(m: Materia, nota: int)" style="text;strokeColor=none;fillColor=none;align=left;verticalAlign=top;spacingLeft=4;spacingRight=4;overflow=hidden;rotatable=0;points=[[0,0.5],[1,0.5]];portConstraint=eastwest;whiteSpace=wrap;html=1;" vertex="1" parent="2K3gw-N-_aGc9L_W_P5B-2">
          <mxGeometry y="164" width="218" height="26" as="geometry" />
        </mxCell>
        <mxCell id="2K3gw-N-_aGc9L_W_P5B-29" value="+addTurma(t: Turma): boolean" style="text;strokeColor=none;fillColor=none;align=left;verticalAlign=top;spacingLeft=4;spacingRight=4;overflow=hidden;rotatable=0;points=[[0,0.5],[1,0.5]];portConstraint=eastwest;whiteSpace=wrap;html=1;" vertex="1" parent="2K3gw-N-_aGc9L_W_P5B-2">
          <mxGeometry y="190" width="218" height="26" as="geometry" />
        </mxCell>
        <mxCell id="2K3gw-N-_aGc9L_W_P5B-5" value="+remTurma(codigo: String): boolean" style="text;strokeColor=none;fillColor=none;align=left;verticalAlign=top;spacingLeft=4;spacingRight=4;overflow=hidden;rotatable=0;points=[[0,0.5],[1,0.5]];portConstraint=eastwest;whiteSpace=wrap;html=1;" vertex="1" parent="2K3gw-N-_aGc9L_W_P5B-2">
          <mxGeometry y="216" width="218" height="26" as="geometry" />
        </mxCell>
        <mxCell id="2K3gw-N-_aGc9L_W_P5B-31" value="+toString(): String" style="text;strokeColor=none;fillColor=none;align=left;verticalAlign=top;spacingLeft=4;spacingRight=4;overflow=hidden;rotatable=0;points=[[0,0.5],[1,0.5]];portConstraint=eastwest;whiteSpace=wrap;html=1;" vertex="1" parent="2K3gw-N-_aGc9L_W_P5B-2">
          <mxGeometry y="242" width="218" height="26" as="geometry" />
        </mxCell>
        <mxCell id="2K3gw-N-_aGc9L_W_P5B-32" value="Materia" style="swimlane;fontStyle=1;align=center;verticalAlign=top;childLayout=stackLayout;horizontal=1;startSize=26;horizontalStack=0;resizeParent=1;resizeParentMax=0;resizeLast=0;collapsible=1;marginBottom=0;whiteSpace=wrap;html=1;fillColor=#f8cecc;strokeColor=#000000;" vertex="1" parent="WIyWlLk6GJQsqaUBKTNV-1">
          <mxGeometry x="565" y="79" width="224" height="268" as="geometry" />
        </mxCell>
        <mxCell id="2K3gw-N-_aGc9L_W_P5B-33" value="-codigo(final): String" style="text;strokeColor=none;fillColor=none;align=left;verticalAlign=top;spacingLeft=4;spacingRight=4;overflow=hidden;rotatable=0;points=[[0,0.5],[1,0.5]];portConstraint=eastwest;whiteSpace=wrap;html=1;" vertex="1" parent="2K3gw-N-_aGc9L_W_P5B-32">
          <mxGeometry y="26" width="224" height="26" as="geometry" />
        </mxCell>
        <mxCell id="2K3gw-N-_aGc9L_W_P5B-34" value="-notaMin: double" style="text;strokeColor=none;fillColor=none;align=left;verticalAlign=top;spacingLeft=4;spacingRight=4;overflow=hidden;rotatable=0;points=[[0,0.5],[1,0.5]];portConstraint=eastwest;whiteSpace=wrap;html=1;" vertex="1" parent="2K3gw-N-_aGc9L_W_P5B-32">
          <mxGeometry y="52" width="224" height="26" as="geometry" />
        </mxCell>
        <mxCell id="2K3gw-N-_aGc9L_W_P5B-35" value="-requisitos: HashSet&amp;lt;Materia&amp;gt;" style="text;strokeColor=none;fillColor=none;align=left;verticalAlign=top;spacingLeft=4;spacingRight=4;overflow=hidden;rotatable=0;points=[[0,0.5],[1,0.5]];portConstraint=eastwest;whiteSpace=wrap;html=1;" vertex="1" parent="2K3gw-N-_aGc9L_W_P5B-32">
          <mxGeometry y="78" width="224" height="26" as="geometry" />
        </mxCell>
        <mxCell id="2K3gw-N-_aGc9L_W_P5B-37" value="" style="line;strokeWidth=1;fillColor=none;align=left;verticalAlign=middle;spacingTop=-1;spacingLeft=3;spacingRight=3;rotatable=0;labelPosition=right;points=[];portConstraint=eastwest;strokeColor=inherit;" vertex="1" parent="2K3gw-N-_aGc9L_W_P5B-32">
          <mxGeometry y="104" width="224" height="8" as="geometry" />
        </mxCell>
        <mxCell id="2K3gw-N-_aGc9L_W_P5B-38" value="+gets/sets...()" style="text;strokeColor=none;fillColor=none;align=left;verticalAlign=top;spacingLeft=4;spacingRight=4;overflow=hidden;rotatable=0;points=[[0,0.5],[1,0.5]];portConstraint=eastwest;whiteSpace=wrap;html=1;" vertex="1" parent="2K3gw-N-_aGc9L_W_P5B-32">
          <mxGeometry y="112" width="224" height="26" as="geometry" />
        </mxCell>
        <mxCell id="2K3gw-N-_aGc9L_W_P5B-88" value="+addRequisito(m: Materia): boolean" style="text;strokeColor=none;fillColor=none;align=left;verticalAlign=top;spacingLeft=4;spacingRight=4;overflow=hidden;rotatable=0;points=[[0,0.5],[1,0.5]];portConstraint=eastwest;whiteSpace=wrap;html=1;" vertex="1" parent="2K3gw-N-_aGc9L_W_P5B-32">
          <mxGeometry y="138" width="224" height="26" as="geometry" />
        </mxCell>
        <mxCell id="2K3gw-N-_aGc9L_W_P5B-89" value="+remRequisito(codigo: String): boolean" style="text;strokeColor=none;fillColor=none;align=left;verticalAlign=top;spacingLeft=4;spacingRight=4;overflow=hidden;rotatable=0;points=[[0,0.5],[1,0.5]];portConstraint=eastwest;whiteSpace=wrap;html=1;" vertex="1" parent="2K3gw-N-_aGc9L_W_P5B-32">
          <mxGeometry y="164" width="224" height="26" as="geometry" />
        </mxCell>
        <mxCell id="2K3gw-N-_aGc9L_W_P5B-39" value="+hashCode(): int" style="text;strokeColor=none;fillColor=none;align=left;verticalAlign=top;spacingLeft=4;spacingRight=4;overflow=hidden;rotatable=0;points=[[0,0.5],[1,0.5]];portConstraint=eastwest;whiteSpace=wrap;html=1;" vertex="1" parent="2K3gw-N-_aGc9L_W_P5B-32">
          <mxGeometry y="190" width="224" height="26" as="geometry" />
        </mxCell>
        <mxCell id="2K3gw-N-_aGc9L_W_P5B-40" value="+equals(obj: Object): boolean" style="text;strokeColor=none;fillColor=none;align=left;verticalAlign=top;spacingLeft=4;spacingRight=4;overflow=hidden;rotatable=0;points=[[0,0.5],[1,0.5]];portConstraint=eastwest;whiteSpace=wrap;html=1;" vertex="1" parent="2K3gw-N-_aGc9L_W_P5B-32">
          <mxGeometry y="216" width="224" height="26" as="geometry" />
        </mxCell>
        <mxCell id="2K3gw-N-_aGc9L_W_P5B-42" value="+toString(): String" style="text;strokeColor=none;fillColor=none;align=left;verticalAlign=top;spacingLeft=4;spacingRight=4;overflow=hidden;rotatable=0;points=[[0,0.5],[1,0.5]];portConstraint=eastwest;whiteSpace=wrap;html=1;" vertex="1" parent="2K3gw-N-_aGc9L_W_P5B-32">
          <mxGeometry y="242" width="224" height="26" as="geometry" />
        </mxCell>
        <mxCell id="2K3gw-N-_aGc9L_W_P5B-44" value="Professor" style="swimlane;fontStyle=1;align=center;verticalAlign=top;childLayout=stackLayout;horizontal=1;startSize=26;horizontalStack=0;resizeParent=1;resizeParentMax=0;resizeLast=0;collapsible=1;marginBottom=0;whiteSpace=wrap;html=1;fillColor=#f8cecc;strokeColor=#000000;" vertex="1" parent="WIyWlLk6GJQsqaUBKTNV-1">
          <mxGeometry x="810" y="79" width="208" height="190" as="geometry" />
        </mxCell>
        <mxCell id="2K3gw-N-_aGc9L_W_P5B-46" value="-cadastro(final): String" style="text;strokeColor=none;fillColor=none;align=left;verticalAlign=top;spacingLeft=4;spacingRight=4;overflow=hidden;rotatable=0;points=[[0,0.5],[1,0.5]];portConstraint=eastwest;whiteSpace=wrap;html=1;" vertex="1" parent="2K3gw-N-_aGc9L_W_P5B-44">
          <mxGeometry y="26" width="208" height="26" as="geometry" />
        </mxCell>
        <mxCell id="2K3gw-N-_aGc9L_W_P5B-48" value="-turmas: Set&amp;lt;Turma&amp;gt;" style="text;strokeColor=none;fillColor=none;align=left;verticalAlign=top;spacingLeft=4;spacingRight=4;overflow=hidden;rotatable=0;points=[[0,0.5],[1,0.5]];portConstraint=eastwest;whiteSpace=wrap;html=1;" vertex="1" parent="2K3gw-N-_aGc9L_W_P5B-44">
          <mxGeometry y="52" width="208" height="26" as="geometry" />
        </mxCell>
        <mxCell id="2K3gw-N-_aGc9L_W_P5B-49" value="" style="line;strokeWidth=1;fillColor=none;align=left;verticalAlign=middle;spacingTop=-1;spacingLeft=3;spacingRight=3;rotatable=0;labelPosition=right;points=[];portConstraint=eastwest;strokeColor=inherit;" vertex="1" parent="2K3gw-N-_aGc9L_W_P5B-44">
          <mxGeometry y="78" width="208" height="8" as="geometry" />
        </mxCell>
        <mxCell id="2K3gw-N-_aGc9L_W_P5B-50" value="+gets/sets...()" style="text;strokeColor=none;fillColor=none;align=left;verticalAlign=top;spacingLeft=4;spacingRight=4;overflow=hidden;rotatable=0;points=[[0,0.5],[1,0.5]];portConstraint=eastwest;whiteSpace=wrap;html=1;" vertex="1" parent="2K3gw-N-_aGc9L_W_P5B-44">
          <mxGeometry y="86" width="208" height="26" as="geometry" />
        </mxCell>
        <mxCell id="2K3gw-N-_aGc9L_W_P5B-52" value="+addTurma(t: Turma): boolean" style="text;strokeColor=none;fillColor=none;align=left;verticalAlign=top;spacingLeft=4;spacingRight=4;overflow=hidden;rotatable=0;points=[[0,0.5],[1,0.5]];portConstraint=eastwest;whiteSpace=wrap;html=1;" vertex="1" parent="2K3gw-N-_aGc9L_W_P5B-44">
          <mxGeometry y="112" width="208" height="26" as="geometry" />
        </mxCell>
        <mxCell id="2K3gw-N-_aGc9L_W_P5B-53" value="+remTurma(codigo: String): boolean" style="text;strokeColor=none;fillColor=none;align=left;verticalAlign=top;spacingLeft=4;spacingRight=4;overflow=hidden;rotatable=0;points=[[0,0.5],[1,0.5]];portConstraint=eastwest;whiteSpace=wrap;html=1;" vertex="1" parent="2K3gw-N-_aGc9L_W_P5B-44">
          <mxGeometry y="138" width="208" height="26" as="geometry" />
        </mxCell>
        <mxCell id="2K3gw-N-_aGc9L_W_P5B-54" value="+toString(): String" style="text;strokeColor=none;fillColor=none;align=left;verticalAlign=top;spacingLeft=4;spacingRight=4;overflow=hidden;rotatable=0;points=[[0,0.5],[1,0.5]];portConstraint=eastwest;whiteSpace=wrap;html=1;" vertex="1" parent="2K3gw-N-_aGc9L_W_P5B-44">
          <mxGeometry y="164" width="208" height="26" as="geometry" />
        </mxCell>
        <mxCell id="2K3gw-N-_aGc9L_W_P5B-55" value="Turma" style="swimlane;fontStyle=1;align=center;verticalAlign=top;childLayout=stackLayout;horizontal=1;startSize=26;horizontalStack=0;resizeParent=1;resizeParentMax=0;resizeLast=0;collapsible=1;marginBottom=0;whiteSpace=wrap;html=1;fillColor=#f8cecc;strokeColor=#000000;" vertex="1" parent="WIyWlLk6GJQsqaUBKTNV-1">
          <mxGeometry x="49" y="521" width="185" height="242" as="geometry" />
        </mxCell>
        <mxCell id="2K3gw-N-_aGc9L_W_P5B-57" value="-materia(final): Materia" style="text;strokeColor=none;fillColor=none;align=left;verticalAlign=top;spacingLeft=4;spacingRight=4;overflow=hidden;rotatable=0;points=[[0,0.5],[1,0.5]];portConstraint=eastwest;whiteSpace=wrap;html=1;" vertex="1" parent="2K3gw-N-_aGc9L_W_P5B-55">
          <mxGeometry y="26" width="185" height="26" as="geometry" />
        </mxCell>
        <mxCell id="2K3gw-N-_aGc9L_W_P5B-56" value="-codigo(final): String" style="text;strokeColor=none;fillColor=none;align=left;verticalAlign=top;spacingLeft=4;spacingRight=4;overflow=hidden;rotatable=0;points=[[0,0.5],[1,0.5]];portConstraint=eastwest;whiteSpace=wrap;html=1;" vertex="1" parent="2K3gw-N-_aGc9L_W_P5B-55">
          <mxGeometry y="52" width="185" height="26" as="geometry" />
        </mxCell>
        <mxCell id="2K3gw-N-_aGc9L_W_P5B-59" value="-professor: Professor" style="text;strokeColor=none;fillColor=none;align=left;verticalAlign=top;spacingLeft=4;spacingRight=4;overflow=hidden;rotatable=0;points=[[0,0.5],[1,0.5]];portConstraint=eastwest;whiteSpace=wrap;html=1;" vertex="1" parent="2K3gw-N-_aGc9L_W_P5B-55">
          <mxGeometry y="78" width="185" height="26" as="geometry" />
        </mxCell>
        <mxCell id="2K3gw-N-_aGc9L_W_P5B-58" value="-listaAlunos: List&amp;lt;Alunos&amp;gt;" style="text;strokeColor=none;fillColor=none;align=left;verticalAlign=top;spacingLeft=4;spacingRight=4;overflow=hidden;rotatable=0;points=[[0,0.5],[1,0.5]];portConstraint=eastwest;whiteSpace=wrap;html=1;" vertex="1" parent="2K3gw-N-_aGc9L_W_P5B-55">
          <mxGeometry y="104" width="185" height="26" as="geometry" />
        </mxCell>
        <mxCell id="2K3gw-N-_aGc9L_W_P5B-60" value="" style="line;strokeWidth=1;fillColor=none;align=left;verticalAlign=middle;spacingTop=-1;spacingLeft=3;spacingRight=3;rotatable=0;labelPosition=right;points=[];portConstraint=eastwest;strokeColor=inherit;" vertex="1" parent="2K3gw-N-_aGc9L_W_P5B-55">
          <mxGeometry y="130" width="185" height="8" as="geometry" />
        </mxCell>
        <mxCell id="2K3gw-N-_aGc9L_W_P5B-61" value="+gets/sets...()" style="text;strokeColor=none;fillColor=none;align=left;verticalAlign=top;spacingLeft=4;spacingRight=4;overflow=hidden;rotatable=0;points=[[0,0.5],[1,0.5]];portConstraint=eastwest;whiteSpace=wrap;html=1;" vertex="1" parent="2K3gw-N-_aGc9L_W_P5B-55">
          <mxGeometry y="138" width="185" height="26" as="geometry" />
        </mxCell>
        <mxCell id="2K3gw-N-_aGc9L_W_P5B-62" value="+addAluno(a: Aluno): boolean" style="text;strokeColor=none;fillColor=none;align=left;verticalAlign=top;spacingLeft=4;spacingRight=4;overflow=hidden;rotatable=0;points=[[0,0.5],[1,0.5]];portConstraint=eastwest;whiteSpace=wrap;html=1;" vertex="1" parent="2K3gw-N-_aGc9L_W_P5B-55">
          <mxGeometry y="164" width="185" height="26" as="geometry" />
        </mxCell>
        <mxCell id="2K3gw-N-_aGc9L_W_P5B-63" value="+remAluno(ra: String): boolean" style="text;strokeColor=none;fillColor=none;align=left;verticalAlign=top;spacingLeft=4;spacingRight=4;overflow=hidden;rotatable=0;points=[[0,0.5],[1,0.5]];portConstraint=eastwest;whiteSpace=wrap;html=1;" vertex="1" parent="2K3gw-N-_aGc9L_W_P5B-55">
          <mxGeometry y="190" width="185" height="26" as="geometry" />
        </mxCell>
        <mxCell id="2K3gw-N-_aGc9L_W_P5B-65" value="+toString(): String" style="text;strokeColor=none;fillColor=none;align=left;verticalAlign=top;spacingLeft=4;spacingRight=4;overflow=hidden;rotatable=0;points=[[0,0.5],[1,0.5]];portConstraint=eastwest;whiteSpace=wrap;html=1;" vertex="1" parent="2K3gw-N-_aGc9L_W_P5B-55">
          <mxGeometry y="216" width="185" height="26" as="geometry" />
        </mxCell>
        <mxCell id="2K3gw-N-_aGc9L_W_P5B-66" value="&lt;span style=&quot;font-weight: normal;&quot;&gt;&amp;lt;&amp;lt;Static&amp;gt;&amp;gt;&lt;/span&gt;&lt;br&gt;Validacao" style="swimlane;fontStyle=1;align=center;verticalAlign=top;childLayout=stackLayout;horizontal=1;startSize=41;horizontalStack=0;resizeParent=1;resizeParentMax=0;resizeLast=0;collapsible=1;marginBottom=0;whiteSpace=wrap;html=1;fillColor=#f8cecc;strokeColor=#000000;fillStyle=solid;" vertex="1" parent="WIyWlLk6GJQsqaUBKTNV-1">
          <mxGeometry x="289" y="521" width="207" height="127" as="geometry" />
        </mxCell>
        <mxCell id="2K3gw-N-_aGc9L_W_P5B-71" value="" style="line;strokeWidth=1;fillColor=none;align=left;verticalAlign=middle;spacingTop=-1;spacingLeft=3;spacingRight=3;rotatable=0;labelPosition=right;points=[];portConstraint=eastwest;strokeColor=inherit;" vertex="1" parent="2K3gw-N-_aGc9L_W_P5B-66">
          <mxGeometry y="41" width="207" height="8" as="geometry" />
        </mxCell>
        <mxCell id="2K3gw-N-_aGc9L_W_P5B-73" value="+validaCPF(cpf: String): boolean" style="text;strokeColor=none;fillColor=none;align=left;verticalAlign=top;spacingLeft=4;spacingRight=4;overflow=hidden;rotatable=0;points=[[0,0.5],[1,0.5]];portConstraint=eastwest;whiteSpace=wrap;html=1;" vertex="1" parent="2K3gw-N-_aGc9L_W_P5B-66">
          <mxGeometry y="49" width="207" height="26" as="geometry" />
        </mxCell>
        <mxCell id="2K3gw-N-_aGc9L_W_P5B-74" value="+validaCNPJ(cnpj: String): boolean" style="text;strokeColor=none;fillColor=none;align=left;verticalAlign=top;spacingLeft=4;spacingRight=4;overflow=hidden;rotatable=0;points=[[0,0.5],[1,0.5]];portConstraint=eastwest;whiteSpace=wrap;html=1;" vertex="1" parent="2K3gw-N-_aGc9L_W_P5B-66">
          <mxGeometry y="75" width="207" height="26" as="geometry" />
        </mxCell>
        <mxCell id="2K3gw-N-_aGc9L_W_P5B-75" value="+validaNome(nome: String): boolean" style="text;strokeColor=none;fillColor=none;align=left;verticalAlign=top;spacingLeft=4;spacingRight=4;overflow=hidden;rotatable=0;points=[[0,0.5],[1,0.5]];portConstraint=eastwest;whiteSpace=wrap;html=1;" vertex="1" parent="2K3gw-N-_aGc9L_W_P5B-66">
          <mxGeometry y="101" width="207" height="26" as="geometry" />
        </mxCell>
        <mxCell id="2K3gw-N-_aGc9L_W_P5B-77" value="&lt;span style=&quot;font-weight: normal;&quot;&gt;&amp;lt;&amp;lt;abstract&amp;gt;&amp;gt;&lt;/span&gt;&lt;br&gt;Pessoa" style="swimlane;fontStyle=1;align=center;verticalAlign=top;childLayout=stackLayout;horizontal=1;startSize=39;horizontalStack=0;resizeParent=1;resizeParentMax=0;resizeLast=0;collapsible=1;marginBottom=0;whiteSpace=wrap;html=1;fillColor=#f8cecc;strokeColor=#000000;" vertex="1" parent="WIyWlLk6GJQsqaUBKTNV-1">
          <mxGeometry x="539" y="521" width="218" height="255" as="geometry" />
        </mxCell>
        <mxCell id="2K3gw-N-_aGc9L_W_P5B-78" value="-nome: String" style="text;strokeColor=none;fillColor=none;align=left;verticalAlign=top;spacingLeft=4;spacingRight=4;overflow=hidden;rotatable=0;points=[[0,0.5],[1,0.5]];portConstraint=eastwest;whiteSpace=wrap;html=1;" vertex="1" parent="2K3gw-N-_aGc9L_W_P5B-77">
          <mxGeometry y="39" width="218" height="26" as="geometry" />
        </mxCell>
        <mxCell id="2K3gw-N-_aGc9L_W_P5B-79" value="-cpf(final): CPF" style="text;strokeColor=none;fillColor=none;align=left;verticalAlign=top;spacingLeft=4;spacingRight=4;overflow=hidden;rotatable=0;points=[[0,0.5],[1,0.5]];portConstraint=eastwest;whiteSpace=wrap;html=1;" vertex="1" parent="2K3gw-N-_aGc9L_W_P5B-77">
          <mxGeometry y="65" width="218" height="26" as="geometry" />
        </mxCell>
        <mxCell id="2K3gw-N-_aGc9L_W_P5B-80" value="-dataNascimento: date" style="text;strokeColor=none;fillColor=none;align=left;verticalAlign=top;spacingLeft=4;spacingRight=4;overflow=hidden;rotatable=0;points=[[0,0.5],[1,0.5]];portConstraint=eastwest;whiteSpace=wrap;html=1;" vertex="1" parent="2K3gw-N-_aGc9L_W_P5B-77">
          <mxGeometry y="91" width="218" height="26" as="geometry" />
        </mxCell>
        <mxCell id="2K3gw-N-_aGc9L_W_P5B-81" value="-dataCadastro: date" style="text;strokeColor=none;fillColor=none;align=left;verticalAlign=top;spacingLeft=4;spacingRight=4;overflow=hidden;rotatable=0;points=[[0,0.5],[1,0.5]];portConstraint=eastwest;whiteSpace=wrap;html=1;" vertex="1" parent="2K3gw-N-_aGc9L_W_P5B-77">
          <mxGeometry y="117" width="218" height="26" as="geometry" />
        </mxCell>
        <mxCell id="2K3gw-N-_aGc9L_W_P5B-82" value="" style="line;strokeWidth=1;fillColor=none;align=left;verticalAlign=middle;spacingTop=-1;spacingLeft=3;spacingRight=3;rotatable=0;labelPosition=right;points=[];portConstraint=eastwest;strokeColor=inherit;" vertex="1" parent="2K3gw-N-_aGc9L_W_P5B-77">
          <mxGeometry y="143" width="218" height="8" as="geometry" />
        </mxCell>
        <mxCell id="2K3gw-N-_aGc9L_W_P5B-83" value="+gets/sets...()" style="text;strokeColor=none;fillColor=none;align=left;verticalAlign=top;spacingLeft=4;spacingRight=4;overflow=hidden;rotatable=0;points=[[0,0.5],[1,0.5]];portConstraint=eastwest;whiteSpace=wrap;html=1;" vertex="1" parent="2K3gw-N-_aGc9L_W_P5B-77">
          <mxGeometry y="151" width="218" height="26" as="geometry" />
        </mxCell>
        <mxCell id="2K3gw-N-_aGc9L_W_P5B-85" value="+hashCode(): int" style="text;strokeColor=none;fillColor=none;align=left;verticalAlign=top;spacingLeft=4;spacingRight=4;overflow=hidden;rotatable=0;points=[[0,0.5],[1,0.5]];portConstraint=eastwest;whiteSpace=wrap;html=1;" vertex="1" parent="2K3gw-N-_aGc9L_W_P5B-77">
          <mxGeometry y="177" width="218" height="26" as="geometry" />
        </mxCell>
        <mxCell id="2K3gw-N-_aGc9L_W_P5B-86" value="+equals(obj: Object): boolean" style="text;strokeColor=none;fillColor=none;align=left;verticalAlign=top;spacingLeft=4;spacingRight=4;overflow=hidden;rotatable=0;points=[[0,0.5],[1,0.5]];portConstraint=eastwest;whiteSpace=wrap;html=1;" vertex="1" parent="2K3gw-N-_aGc9L_W_P5B-77">
          <mxGeometry y="203" width="218" height="26" as="geometry" />
        </mxCell>
        <mxCell id="2K3gw-N-_aGc9L_W_P5B-87" value="+toString(): String" style="text;strokeColor=none;fillColor=none;align=left;verticalAlign=top;spacingLeft=4;spacingRight=4;overflow=hidden;rotatable=0;points=[[0,0.5],[1,0.5]];portConstraint=eastwest;whiteSpace=wrap;html=1;" vertex="1" parent="2K3gw-N-_aGc9L_W_P5B-77">
          <mxGeometry y="229" width="218" height="26" as="geometry" />
        </mxCell>
      </root>
    </mxGraphModel>
  </diagram>
</mxfile>
